<svg width="77" height="28" fill="none" xmlns="http://www.w3.org/2000/svg"><path fill-rule="evenodd" clip-rule="evenodd" d="M1.722 22.56L2.39 28H25.76l-.764-6.228H14.1l-.095-.773 10.037-7.013-.67-5.45H0l.765 6.229H11.68l.096.778-10.054 7.018z" fill="#1A0826"/><path fill-rule="evenodd" clip-rule="evenodd" d="M26.086 8.536l2.39 19.463h23.39L49.474 8.536h-23.39z" fill="#AA8FFF"/><path fill-rule="evenodd" clip-rule="evenodd" d="M28.351 5.953c1.53 1.362 3.739 1.362 4.931 0 1.194-1.361.92-3.57-.611-4.931-1.53-1.363-3.738-1.363-4.931 0-1.193 1.361-.92 3.57.611 4.931zM67.749 18.65l-7.32.008-.574-4.671 7.358.006c1.73.02 2.616.995 2.76 2.328.09.858-.302 2.329-2.224 2.329zm8.645-3.106c-.54-4.376-3.977-7.027-8.647-7.008H52.189L54.58 28h6.998l-.479-3.893h7.407c5.829 0 8.497-3.633 7.89-8.563z" fill="#1A0826"/></svg>